<svg width="16" height="15" viewBox="0 0 16 15" fill="none" xmlns="http://www.w3.org/2000/svg">
<path d="M8.00076 1.39677C9.76251 -0.184985 12.485 -0.132485 14.1823 1.56777C15.8788 3.26877 15.9373 5.97777 14.3593 7.74477L7.99925 14.1138L1.64075 7.74477C0.0627545 5.97777 0.122005 3.26427 1.81775 1.56777C3.51651 -0.130235 6.23376 -0.187235 8.00076 1.39677ZM13.1203 2.62752C11.9953 1.50102 10.1803 1.45527 9.00276 2.51277L8.0015 3.41127L6.99951 2.51352C5.81825 1.45452 4.007 1.50102 2.879 2.62902C1.7615 3.74652 1.70525 5.53527 2.735 6.71727L8 11.9905L13.265 6.71802C14.2955 5.53527 14.2393 3.74877 13.1203 2.62752Z" fill="#F72A16"/>
</svg>
