<svg width="45" height="44" viewBox="0 0 45 44" fill="none" xmlns="http://www.w3.org/2000/svg">
<g clip-path="url(#clip0_23_4305)">
<path d="M16.9365 33C16.7185 34.5295 15.956 35.9291 14.7891 36.9415C13.6221 37.954 12.129 38.5115 10.584 38.5115C9.039 38.5115 7.54589 37.954 6.37891 36.9415C5.21192 35.9291 4.44943 34.5295 4.23148 33H2.33398V11C2.33398 10.5138 2.52714 10.0474 2.87096 9.70363C3.21477 9.35981 3.68109 9.16666 4.16732 9.16666H29.834C30.3202 9.16666 30.7865 9.35981 31.1303 9.70363C31.4742 10.0474 31.6673 10.5138 31.6673 11V14.6667H37.1673L42.6673 22.1027V33H38.9365C38.7185 34.5295 37.956 35.9291 36.7891 36.9415C35.6221 37.954 34.129 38.5115 32.584 38.5115C31.039 38.5115 29.5459 37.954 28.3789 36.9415C27.2119 35.9291 26.4494 34.5295 26.2315 33H16.9365ZM28.0007 12.8333H6.00065V27.5917C6.72401 26.8532 7.61509 26.3004 8.59803 25.9804C9.58098 25.6603 10.6267 25.5825 11.6462 25.7535C12.6657 25.9246 13.6287 26.3394 14.4534 26.9626C15.2781 27.5859 15.94 28.3992 16.3828 29.3333H26.7852C27.0932 28.6862 27.5056 28.0977 28.0007 27.5917V12.8333ZM31.6673 23.8333H39.0006V23.3108L35.3193 18.3333H31.6673V23.8333ZM32.584 34.8333C33.3136 34.8333 34.0133 34.5435 34.5292 34.0276C35.0451 33.5117 35.3349 32.812 35.3349 32.0824C35.3349 31.3528 35.0451 30.6531 34.5292 30.1372C34.0133 29.6213 33.3136 29.3315 32.584 29.3315C31.8544 29.3315 31.1547 29.6213 30.6388 30.1372C30.1229 30.6531 29.8331 31.3528 29.8331 32.0824C29.8331 32.812 30.1229 33.5117 30.6388 34.0276C31.1547 34.5435 31.8544 34.8333 32.584 34.8333ZM13.334 32.0833C13.334 31.7222 13.2629 31.3646 13.1247 31.0309C12.9865 30.6973 12.7839 30.3941 12.5285 30.1388C12.2732 29.8834 11.97 29.6809 11.6364 29.5427C11.3027 29.4045 10.9451 29.3333 10.584 29.3333C10.2228 29.3333 9.86525 29.4045 9.5316 29.5427C9.19796 29.6809 8.8948 29.8834 8.63944 30.1388C8.38408 30.3941 8.18152 30.6973 8.04331 31.0309C7.90511 31.3646 7.83398 31.7222 7.83398 32.0833C7.83398 32.8127 8.12371 33.5121 8.63944 34.0279C9.15517 34.5436 9.85464 34.8333 10.584 34.8333C11.3133 34.8333 12.0128 34.5436 12.5285 34.0279C13.0443 33.5121 13.334 32.8127 13.334 32.0833Z" fill="#C3C3C3"/>
</g>
<defs>
<clipPath id="clip0_23_4305">
<rect width="44" height="44" fill="white" transform="translate(0.5)"/>
</clipPath>
</defs>
</svg>
