<svg width="44" height="44" viewBox="0 0 44 44" fill="none" xmlns="http://www.w3.org/2000/svg">
<g clip-path="url(#clip0_23_4313)">
<path d="M5.49935 5.5H38.4994C38.9856 5.5 39.4519 5.69315 39.7957 6.03697C40.1395 6.38079 40.3327 6.8471 40.3327 7.33333V36.6667C40.3327 37.1529 40.1395 37.6192 39.7957 37.963C39.4519 38.3068 38.9856 38.5 38.4994 38.5H5.49935C5.01312 38.5 4.5468 38.3068 4.20299 37.963C3.85917 37.6192 3.66602 37.1529 3.66602 36.6667V7.33333C3.66602 6.8471 3.85917 6.38079 4.20299 6.03697C4.5468 5.69315 5.01312 5.5 5.49935 5.5ZM36.666 20.1667H7.33268V34.8333H36.666V20.1667ZM36.666 16.5V9.16667H7.33268V16.5H36.666ZM25.666 27.5H32.9993V31.1667H25.666V27.5Z" fill="#C3C3C3"/>
</g>
<defs>
<clipPath id="clip0_23_4313">
<rect width="44" height="44" fill="white"/>
</clipPath>
</defs>
</svg>
