<svg width="44" height="44" viewBox="0 0 44 44" fill="none" xmlns="http://www.w3.org/2000/svg">
<g clip-path="url(#clip0_23_4289)">
<path d="M7.33268 29.3333V7.33334H3.66602V3.66667H9.16602C9.65225 3.66667 10.1186 3.85983 10.4624 4.20364C10.8062 4.54746 10.9994 5.01377 10.9994 5.50001V27.5H33.8024L37.469 12.8333H14.666V9.16667H39.8194C40.098 9.16668 40.373 9.23022 40.6235 9.35246C40.8739 9.47469 41.0932 9.65242 41.2646 9.87211C41.4361 10.0918 41.5552 10.3477 41.6129 10.6203C41.6706 10.893 41.6654 11.1752 41.5977 11.4455L37.0144 29.7788C36.915 30.1753 36.6861 30.5272 36.3639 30.7786C36.0417 31.0301 35.6447 31.1667 35.236 31.1667H9.16602C8.67979 31.1667 8.21347 30.9735 7.86965 30.6297C7.52584 30.2859 7.33268 29.8196 7.33268 29.3333ZM10.9994 42.1667C10.0269 42.1667 9.09426 41.7804 8.40662 41.0927C7.71899 40.4051 7.33268 39.4725 7.33268 38.5C7.33268 37.5275 7.71899 36.5949 8.40662 35.9073C9.09426 35.2196 10.0269 34.8333 10.9994 34.8333C11.9718 34.8333 12.9044 35.2196 13.5921 35.9073C14.2797 36.5949 14.666 37.5275 14.666 38.5C14.666 39.4725 14.2797 40.4051 13.5921 41.0927C12.9044 41.7804 11.9718 42.1667 10.9994 42.1667ZM32.9994 42.1667C32.0269 42.1667 31.0943 41.7804 30.4066 41.0927C29.719 40.4051 29.3327 39.4725 29.3327 38.5C29.3327 37.5275 29.719 36.5949 30.4066 35.9073C31.0943 35.2196 32.0269 34.8333 32.9994 34.8333C33.9718 34.8333 34.9044 35.2196 35.5921 35.9073C36.2797 36.5949 36.666 37.5275 36.666 38.5C36.666 39.4725 36.2797 40.4051 35.5921 41.0927C34.9044 41.7804 33.9718 42.1667 32.9994 42.1667Z" fill="#FABC22"/>
</g>
<defs>
<clipPath id="clip0_23_4289">
<rect width="44" height="44" fill="white"/>
</clipPath>
</defs>
</svg>
