<?xml version="1.0" standalone="no"?>
<!DOCTYPE svg PUBLIC "-//W3C//DTD SVG 20010904//EN"
 "http://www.w3.org/TR/2001/REC-SVG-20010904/DTD/svg10.dtd">
<svg version="1.0" xmlns="http://www.w3.org/2000/svg"
 width="700.000000pt" height="700.000000pt" viewBox="0 0 700.000000 700.000000"
 preserveAspectRatio="xMidYMid meet">
<metadata>
Created by potrace 1.14, written by Peter Selinger 2001-2017
</metadata>
<g transform="translate(0.000000,700.000000) scale(0.100000,-0.100000)"
fill="#000000" stroke="none">
<path d="M4146 1316 c-52 -19 -94 -61 -122 -121 -27 -56 -29 -102 -10 -158 34
-95 107 -146 208 -147 70 0 103 12 147 53 139 132 61 369 -125 383 -37 3 -73
-1 -98 -10z m154 -51 c84 -44 116 -164 66 -250 -55 -93 -177 -114 -254 -42
-82 76 -71 227 20 286 40 25 125 28 168 6z"/>
<path d="M1030 1105 c0 -208 1 -215 20 -215 19 0 20 7 20 170 0 94 3 170 8
170 4 0 67 -76 141 -170 89 -114 139 -170 152 -170 18 0 19 10 19 215 l0 215
-25 0 -25 0 -2 -167 -3 -166 -130 166 c-99 127 -135 167 -152 167 l-23 0 0
-215z"/>
<path d="M1755 1307 c-3 -7 -4 -102 -3 -212 l3 -200 155 0 c148 0 155 1 155
20 0 19 -8 20 -133 23 l-133 3 3 72 3 72 118 3 c108 2 117 4 117 22 0 18 -9
20 -117 22 l-118 3 0 70 0 70 133 3 c120 2 133 4 130 20 -3 15 -21 17 -156 20
-118 2 -154 0 -157 -11z"/>
<path d="M2380 1317 c0 -3 99 -282 136 -385 13 -34 20 -42 36 -40 17 2 31 33
76 166 31 89 59 162 62 162 3 0 30 -73 61 -163 46 -133 60 -163 77 -165 16 -2
23 6 36 40 37 103 136 382 136 385 0 3 -12 3 -27 1 -25 -3 -30 -13 -79 -160
-29 -86 -56 -162 -60 -169 -5 -8 -30 54 -64 156 -47 142 -60 171 -77 173 -23
3 -21 7 -103 -243 l-36 -110 -33 95 c-18 52 -46 131 -61 175 -24 70 -31 80
-54 83 -14 2 -26 2 -26 -1z"/>
<path d="M3340 1105 l0 -215 95 0 c129 0 188 14 220 52 42 50 24 137 -32 159
l-26 10 26 27 c35 37 43 81 23 120 -26 51 -60 62 -191 62 l-115 0 0 -215z
m219 164 c58 -20 68 -73 20 -113 -28 -23 -39 -26 -115 -26 l-84 0 0 75 0 75
74 0 c40 0 87 -5 105 -11z m13 -189 c62 -18 79 -82 32 -119 -23 -18 -41 -21
-125 -21 l-99 0 0 75 0 75 78 0 c42 0 94 -5 114 -10z"/>
<path d="M4790 1104 l0 -215 23 3 c20 3 22 9 25 86 l3 82 59 0 58 0 63 -85
c47 -64 69 -85 86 -85 13 0 23 5 23 10 0 6 -25 44 -55 84 -30 40 -55 76 -55
79 0 4 16 13 35 21 40 17 75 68 75 111 0 43 -35 94 -75 111 -23 9 -72 14 -150
14 l-115 0 0 -216z m222 166 c70 -20 87 -78 40 -131 -27 -30 -32 -32 -120 -37
l-92 -5 0 92 0 91 68 0 c37 0 84 -5 104 -10z"/>
<path d="M5480 1105 c0 -208 1 -215 20 -215 19 0 20 7 20 170 0 94 3 170 8
170 4 0 67 -76 141 -170 89 -114 139 -170 152 -170 18 0 19 10 19 215 l0 215
-25 0 -25 0 -2 -167 -3 -166 -130 166 c-99 127 -135 167 -152 167 l-23 0 0
-215z"/>
</g>
</svg>
