<svg width="12" height="12" viewBox="0 0 12 12" fill="none" xmlns="http://www.w3.org/2000/svg">
<path d="M4.4635 5.23117C5.01086 6.19278 5.80722 6.98914 6.76883 7.5365L7.2845 6.81433C7.36743 6.69821 7.49004 6.61651 7.62914 6.58469C7.76823 6.55288 7.91417 6.57315 8.03933 6.64167C8.86435 7.09254 9.77545 7.3637 10.7127 7.43733C10.859 7.44893 10.9956 7.51523 11.0952 7.62302C11.1947 7.73081 11.25 7.87217 11.25 8.01892V10.6217C11.25 10.7662 11.1965 10.9055 11.0997 11.0127C11.0029 11.1199 10.8698 11.1874 10.7262 11.2022C10.417 11.2342 10.1055 11.25 9.79167 11.25C4.79833 11.25 0.75 7.20167 0.75 2.20833C0.75 1.8945 0.76575 1.583 0.797833 1.27383C0.812565 1.13016 0.880074 0.997054 0.987294 0.900286C1.09451 0.803519 1.23382 0.749969 1.37825 0.75H3.98108C4.12783 0.749982 4.26919 0.805272 4.37698 0.904846C4.48477 1.00442 4.55107 1.14096 4.56267 1.28725C4.6363 2.22455 4.90746 3.13565 5.35833 3.96067C5.42685 4.08583 5.44712 4.23177 5.41531 4.37086C5.38349 4.50996 5.30179 4.63257 5.18567 4.7155L4.4635 5.23117ZM2.99233 4.84792L4.10067 4.05633C3.78612 3.37739 3.57062 2.65682 3.46075 1.91667H1.9225C1.919 2.0135 1.91725 2.11092 1.91725 2.20833C1.91667 6.55767 5.44233 10.0833 9.79167 10.0833C9.88908 10.0833 9.9865 10.0816 10.0833 10.0775V8.53925C9.34318 8.42938 8.62261 8.21388 7.94367 7.89933L7.15208 9.00767C6.83339 8.88383 6.52384 8.73764 6.22575 8.57017L6.19192 8.55092C5.04775 7.89975 4.10025 6.95225 3.44908 5.80808L3.42983 5.77425C3.26236 5.47616 3.11617 5.16661 2.99233 4.84792Z" fill="white"/>
</svg>
